<svg width="150" height="150" viewBox="0 0 150 150" fill="none" xmlns="http://www.w3.org/2000/svg">
<path d="M-3.05176e-05 75C-3.05176e-05 51.7029 -3.05176e-05 40.0544 3.80599 30.8658C8.88069 18.6144 18.6144 8.88072 30.8658 3.80602C40.0544 0 51.7029 0 75 0C98.297 0 109.946 0 119.134 3.80602C131.386 8.88072 141.119 18.6144 146.194 30.8658C150 40.0544 150 51.7029 150 75C150 98.2971 150 109.946 146.194 119.134C141.119 131.386 131.386 141.119 119.134 146.194C109.946 150 98.297 150 75 150C51.7029 150 40.0544 150 30.8658 146.194C18.6144 141.119 8.88069 131.386 3.80599 119.134C-3.05176e-05 109.946 -3.05176e-05 98.2971 -3.05176e-05 75Z" fill="#FFB74B"/>
<path d="M112.382 68.7582C112.382 84.0231 98.3077 101.728 86.0323 113.727C79.8673 119.753 70.2073 119.753 64.0422 113.727C51.7668 101.728 37.6927 84.0231 37.6927 68.7582C37.6927 43.38 58.172 30.45 75.0373 30.45C91.9025 30.45 112.382 43.38 112.382 68.7582Z" fill="white"/>
</svg>
