<svg width="150" height="150" viewBox="0 0 150 150" fill="none" xmlns="http://www.w3.org/2000/svg">
<path d="M-4.57764e-05 75C-4.57764e-05 51.7029 -4.57764e-05 40.0544 3.80598 30.8658C8.88067 18.6144 18.6144 8.88072 30.8658 3.80602C40.0543 0 51.7029 0 74.9999 0C98.297 0 109.946 0 119.134 3.80602C131.386 8.88072 141.119 18.6144 146.194 30.8658C150 40.0544 150 51.7029 150 75C150 98.2971 150 109.946 146.194 119.134C141.119 131.386 131.386 141.119 119.134 146.194C109.946 150 98.297 150 74.9999 150C51.7029 150 40.0543 150 30.8658 146.194C18.6144 141.119 8.88067 131.386 3.80598 119.134C-4.57764e-05 109.946 -4.57764e-05 98.2971 -4.57764e-05 75Z" fill="#3BE497"/>
<path d="M63.6749 31.9318C70.7293 27.8589 79.4206 27.8589 86.4749 31.9318L105.959 43.1807C113.013 47.2535 117.359 54.7804 117.359 62.9261V85.4239C117.359 93.5695 113.013 101.096 105.959 105.169L86.475 116.418C79.4206 120.491 70.7293 120.491 63.6749 116.418L44.1913 105.169C37.1369 101.096 32.7913 93.5695 32.7913 85.4239V62.9261C32.7913 54.7804 37.1369 47.2535 44.1913 43.1807L63.6749 31.9318Z" fill="white"/>
</svg>
