<svg width="190" height="190" viewBox="0 0 190 190" fill="none" xmlns="http://www.w3.org/2000/svg">
<rect width="190" height="190" rx="70" fill="#F0EFFF"/>
<path fill-rule="evenodd" clip-rule="evenodd" d="M94.62 143.64C67.5469 143.64 45.6 121.693 45.6 94.62C45.6 67.547 67.5469 45.6 94.62 45.6C121.693 45.6 143.64 67.547 143.64 94.62C143.64 121.693 121.693 143.64 94.62 143.64ZM88.4295 101.098L80.5863 94.1858H80.5933C78.4224 92.267 75.103 92.4771 73.1842 94.648C71.2654 96.8189 71.4755 100.138 73.6464 102.057L83.9056 111.133C86.9518 113.822 91.6017 113.528 94.2838 110.488C94.3749 110.39 94.3749 110.39 94.4449 110.292L116.182 83.9617C118.024 81.7277 117.708 78.4154 115.467 76.5596C113.234 74.7179 109.921 75.033 108.065 77.2739L88.4295 101.098Z" fill="#BAB4FF"/>
</svg>
