<svg width="150" height="150" viewBox="0 0 150 150" fill="none" xmlns="http://www.w3.org/2000/svg">
<path d="M-6.10352e-05 75C-6.10352e-05 51.7029 -6.10352e-05 40.0544 3.80596 30.8658C8.88066 18.6144 18.6144 8.88072 30.8658 3.80602C40.0543 0 51.7029 0 74.9999 0C98.297 0 109.946 0 119.134 3.80602C131.385 8.88072 141.119 18.6144 146.194 30.8658C150 40.0544 150 51.7029 150 75C150 98.2971 150 109.946 146.194 119.134C141.119 131.386 131.385 141.119 119.134 146.194C109.946 150 98.297 150 74.9999 150C51.7029 150 40.0543 150 30.8658 146.194C18.6144 141.119 8.88066 131.386 3.80596 119.134C-6.10352e-05 109.946 -6.10352e-05 98.2971 -6.10352e-05 75Z" fill="#B04BFF"/>
<path d="M32.2143 68.2146C30.4553 58.857 35.4791 49.5438 44.2652 45.8744L94.3374 24.9625C99.0518 22.9936 104.382 25.8689 105.326 30.8901C106.018 34.5735 104.071 38.246 100.634 39.7399L49.7263 61.8645C48.7526 62.2877 49.1863 63.7527 50.2335 63.5776L97.2964 55.7098C104.546 54.4979 111.432 59.3078 112.79 66.5311L118.641 97.6589C120.019 104.986 115.195 112.043 107.867 113.42L60.6936 122.288C50.9236 124.124 41.5147 117.693 39.6782 107.923L32.2143 68.2146Z" fill="white"/>
</svg>
