<svg width="150" height="150" viewBox="0 0 150 150" fill="none" xmlns="http://www.w3.org/2000/svg">
<path d="M-1.52588e-05 75C-1.52588e-05 51.7029 -1.52588e-05 40.0544 3.80601 30.8658C8.8807 18.6144 18.6144 8.88072 30.8658 3.80602C40.0544 0 51.7029 0 75 0C98.2971 0 109.946 0 119.134 3.80602C131.386 8.88072 141.119 18.6144 146.194 30.8658C150 40.0544 150 51.7029 150 75C150 98.2971 150 109.946 146.194 119.134C141.119 131.386 131.386 141.119 119.134 146.194C109.946 150 98.2971 150 75 150C51.7029 150 40.0544 150 30.8658 146.194C18.6144 141.119 8.8807 131.386 3.80601 119.134C-1.52588e-05 109.946 -1.52588e-05 98.2971 -1.52588e-05 75Z" fill="#FF4A4A"/>
<path d="M36.3 75H75H113.7M102.365 47.6349L75 75L47.6349 102.365M75 36.3V75V113.7M47.635 47.6349L75 75L102.365 102.365" stroke="white" stroke-width="14.25" stroke-linecap="round" stroke-linejoin="round"/>
</svg>
