<svg width="150" height="150" viewBox="0 0 150 150" fill="none" xmlns="http://www.w3.org/2000/svg">
<path d="M0 75C0 51.7029 0 40.0544 3.80602 30.8658C8.88072 18.6144 18.6144 8.88072 30.8658 3.80602C40.0544 0 51.7029 0 75 0C98.2971 0 109.946 0 119.134 3.80602C131.386 8.88072 141.119 18.6144 146.194 30.8658C150 40.0544 150 51.7029 150 75C150 98.2971 150 109.946 146.194 119.134C141.119 131.386 131.386 141.119 119.134 146.194C109.946 150 98.2971 150 75 150C51.7029 150 40.0544 150 30.8658 146.194C18.6144 141.119 8.88072 131.386 3.80602 119.134C0 109.946 0 98.2971 0 75Z" fill="#FFF1DD"/>
<path d="M44.3852 94.3496C49.2888 94.3496 52.759 91.4829 53.7397 86.7302C55.0222 80.6951 57.2853 78.0547 61.3591 78.0547C64.4521 78.0547 66.5644 79.488 70.7136 83.1846C79.0119 90.9548 84.6699 93.897 92.3647 93.897C104.36 93.897 113.337 84.9951 115.525 72.623C115.902 70.8125 116.053 68.9265 116.053 66.9651C116.053 60.7036 112.205 55.8 105.944 55.8C101.116 55.8 97.6454 58.5913 96.4384 63.1931C94.8542 69.6809 93.27 72.2458 89.1962 72.2458C85.8014 72.2458 83.5383 70.6616 78.7856 66.0598C71.9206 59.4211 66.0363 56.3281 58.0397 56.3281C46.3466 56.3281 37.2184 64.7773 34.7289 76.8477C34.2763 78.8845 34.05 81.0723 34.05 83.26C34.05 89.6724 37.9728 94.3496 44.3852 94.3496Z" fill="#443E36"/>
</svg>
