<svg width="150" height="150" viewBox="0 0 150 150" fill="none" xmlns="http://www.w3.org/2000/svg">
<g clip-path="url(#clip0_411_173)">
<rect width="150" height="150" rx="50" fill="#FF5277"/>
<path d="M44.247 106.32L40.9615 111.249L46.8335 112.024C51.0792 112.585 57.9495 112.617 65.2154 111C72.4824 109.383 80.4631 106.043 86.5266 99.5883C94.5352 91.063 96.961 82.6039 94.8734 74.5193C94.1769 71.8218 94.621 69.6105 95.7872 68.3846L191.972 -32.7138C192.831 -33.6166 193.786 -34.9278 194.277 -36.4617C194.784 -38.0478 194.935 -40.5325 192.967 -42.5007C190.998 -44.4689 188.514 -44.3183 186.928 -43.8108C185.394 -43.32 184.083 -42.3652 183.18 -41.5063L83.3103 53.5046C81.8111 54.9309 78.8788 55.1833 74.9633 54.2097C68.3639 52.5688 61.3694 54.6426 56.3343 58.7078C51.2548 62.8088 47.7571 69.2928 48.8864 76.7459C49.963 83.8517 50.3234 88.8409 49.697 93.2256C49.0864 97.4999 47.499 101.442 44.247 106.32Z" fill="white" stroke="white" stroke-width="7.37839"/>
</g>
<defs>
<clipPath id="clip0_411_173">
<rect width="150" height="150" rx="50" fill="white"/>
</clipPath>
</defs>
</svg>
