<svg width="150" height="150" viewBox="0 0 150 150" fill="none" xmlns="http://www.w3.org/2000/svg">
<path d="M0 75C0 51.7029 0 40.0544 3.80602 30.8658C8.88072 18.6144 18.6144 8.88072 30.8658 3.80602C40.0544 0 51.7029 0 75 0C98.2971 0 109.946 0 119.134 3.80602C131.386 8.88072 141.119 18.6144 146.194 30.8658C150 40.0544 150 51.7029 150 75C150 98.2971 150 109.946 146.194 119.134C141.119 131.386 131.386 141.119 119.134 146.194C109.946 150 98.2971 150 75 150C51.7029 150 40.0544 150 30.8658 146.194C18.6144 141.119 8.88072 131.386 3.80602 119.134C0 109.946 0 98.2971 0 75Z" fill="#47A7FF"/>
<path d="M44.7 79.9541L61.573 96.827L105.3 53.1" stroke="white" stroke-width="22.1012" stroke-linecap="round" stroke-linejoin="round"/>
</svg>
